<?xml version="1.0" encoding="UTF-8"?><svg id="_-2" xmlns="http://www.w3.org/2000/svg" xmlns:xlink="http://www.w3.org/1999/xlink" viewBox="0 0 15.78 64"><defs><style></style><symbol id="_" viewBox="0 0 15.78 60.38"><path d="M1.56,29.11c3.94,0,4.5-2.17,4.5-4.11,0-1.56-.22-3.11-.44-4.67s-.44-3.06-.44-4.61c0-5.11,3.33-7.28,8.06-7.28h1.17v3.06h-1c-3.28,0-4.39,1.78-4.39,4.78,0,1.28.17,2.61.39,3.94.22,1.39.39,2.72.39,4.22.06,3.56-1.5,5.33-4,6v.11c2.5.61,4.06,2.5,4,6.06,0,1.5-.17,2.89-.39,4.22-.22,1.39-.39,2.67-.39,4,0,3.11,1.28,4.83,4.39,4.83h1v3.06h-1.17c-4.61,0-8.06-2-8.06-7.61,0-1.5.22-3.06.44-4.56s.44-3,.44-4.5c0-1.72-.56-4.11-4.5-4.11v-2.83Z"/></symbol></defs><use width="15.78" height="60.38" transform="translate(0 -.19)" xlink:href="#_"/></svg>
